<?xml version="1.0" encoding="utf-8"?>
<!-- Generator: Adobe Illustrator 18.0.0, SVG Export Plug-In . SVG Version: 6.00 Build 0)  -->
<!DOCTYPE svg PUBLIC "-//W3C//DTD SVG 1.1//EN" "http://www.w3.org/Graphics/SVG/1.1/DTD/svg11.dtd">
<svg version="1.1" id="Layer_1" xmlns="http://www.w3.org/2000/svg" xmlns:xlink="http://www.w3.org/1999/xlink" x="0px" y="0px"
	 viewBox="0 0 293.2 103.3" enable-background="new 0 0 293.2 103.3" xml:space="preserve">
<polygon fill="#F47721" points="235.7,15.8 262.6,19.1 259,37.4 240.7,32.8 237.9,48.4 255.5,55 252.2,71.9 228.2,59.8 "/>
<polygon fill="#E11F30" points="255.8,0 252.4,17.9 274.4,20.6 270.3,40.2 249.2,35 246.2,51.5 280.2,64.9 293.2,0 "/>
<g>
	<defs>
		<rect id="SVGID_1_" y="0" width="293.2" height="103.3"/>
	</defs>
	<clipPath id="SVGID_2_">
		<use xlink:href="#SVGID_1_"  overflow="visible"/>
	</clipPath>
	<path clip-path="url(#SVGID_2_)" fill-rule="evenodd" clip-rule="evenodd" d="M204.6,63.8h-11.9v-59h11.9V63.8z M167.6,56.3
		c3.4,0,8.5-4.3,8.1-15l-4.9,1.6c-4.9,1.5-7.2,4.2-7.2,8.3C163.6,54.4,165.6,56.3,167.6,56.3 M176.8,58.4c-2.8,3.1-6,6.3-13,6.3
		c-6.5,0-11.9-5-11.9-12.6c0-7.9,5.8-12.3,15-14.9l8.6-2.5c-0.7-2.8-3.4-4.6-6.3-4.6c-3.5,0-5.9,0.9-8.4,2.7l-2.3-7.3
		c3.6-2.1,7.3-3.1,12-3.1c7.3,0,16.8,2.4,16.8,15.3l0,26.2l-10.5,0C176.8,63.8,176.8,58.4,176.8,58.4 M149.4,54
		c0.1,2.9,1,5.5,2.4,7.5c-3.5,1.9-7.7,3.3-11.7,3.3c-16.8,0-22.3-12.8-22.3-21.1c0-11.4,8.6-21.4,22.9-21.4c3.6,0,7,0.9,10.2,2.6
		l-2.3,7.7c-2.3-1-4.7-1.8-7.2-1.8c-5.5,0-11.1,3.7-11.1,12.3c0,7.6,4.3,13.1,11.2,13.1C144.5,56.2,146.8,55.4,149.4,54 M103.9,22.2
		c4.6,0,8.8,1.1,12.3,4.2l-4.2,5.9c-2-1.5-4.3-2.9-6.8-2.9c-2.1,0-4,1.2-4,3.3c0,2.9,5.8,6.1,7.8,7.5c5.7,4.2,7.5,8.5,7.5,12.4
		c0,6-6.5,12-15.4,12c-5.6,0-9.6-1.8-14-5l4.1-6.7c2.3,1.8,5.6,4.1,8.7,4.1c2.8,0,4.9-1.4,4.9-4.1c0-3.4-5-6-7.5-7.7
		c-4.5-3.1-7.8-6.2-7.8-11.4C89.6,27,96,22.2,103.9,22.2 M84.8,63.8H73v-3.9c-3.4,3-7.1,4.8-11.7,4.8c-8.8,0-14-5.4-14-15.6V23.2
		h11.9v24.4c0,5.3,2.3,8.4,6.6,8.4c3.1,0,7.1-2.7,7.1-9.4V23.2h11.9V63.8z M33.2,54.9c4,0,7.4-1,10.9-2.8c0.4,3.7,1.5,6.7,3.4,8.9
		c-4.4,2.2-10,3.6-14.8,3.6C12.7,64.7,0,51.2,0,33.8C0,17.7,12.6,3.6,32.8,3.6c5.3,0,10.3,1.6,14.9,4.1l-3.3,8.9
		c-3.5-1.8-7.6-3.2-11.5-3.2c-11.2,0-19.2,7.9-19.2,20.6C13.6,47.2,22.5,54.9,33.2,54.9"/>
	<polygon clip-path="url(#SVGID_2_)" points="8.4,87.6 4.5,87.6 4.5,85.5 14.7,85.5 14.7,87.6 10.8,87.6 10.8,98.9 8.4,98.9 	"/>
	<path clip-path="url(#SVGID_2_)" d="M15.9,84.8h2.4v5.7h0c0.3-0.5,0.7-0.8,1.2-1.1c0.5-0.3,1.1-0.4,1.7-0.4c1.7,0,3.4,1.1,3.4,4.2
		v5.7h-2.4v-5.4c0-1.4-0.5-2.5-1.9-2.5c-1,0-1.6,0.6-1.9,1.4c-0.1,0.2-0.1,0.5-0.1,0.7v5.8h-2.4V84.8z"/>
	<path clip-path="url(#SVGID_2_)" d="M29,94.8c0.1,1.8,1.4,2.5,3,2.5c1.1,0,1.9-0.2,2.7-0.4l0.4,1.7c-0.8,0.4-2,0.6-3.4,0.6
		c-3.1,0-5-1.9-5-4.9c0-2.7,1.6-5.2,4.7-5.2c3.1,0,4.2,2.6,4.2,4.7c0,0.5,0,0.8-0.1,1H29z M33.3,93.1c0-0.9-0.4-2.4-2-2.4
		c-1.5,0-2.1,1.4-2.2,2.4H33.3z"/>
	<path clip-path="url(#SVGID_2_)" d="M48.8,98.7c-0.5,0.2-1.5,0.5-2.7,0.5c-3,0-5-1.9-5-5c0-2.9,2-5.2,5.4-5.2
		c0.9,0,1.8,0.2,2.4,0.4l-0.4,1.8c-0.4-0.2-1-0.4-1.8-0.4c-1.9,0-3,1.4-3,3.1c0,2,1.3,3.1,3,3.1c0.8,0,1.5-0.2,1.9-0.4L48.8,98.7z"
		/>
	<path clip-path="url(#SVGID_2_)" d="M59.6,94c0,3.6-2.5,5.2-5,5.2c-2.7,0-4.9-1.9-4.9-5c0-3.2,2.1-5.1,5-5.1
		C57.7,89,59.6,91.1,59.6,94 M52.3,94.1c0,1.9,0.9,3.3,2.4,3.3c1.4,0,2.4-1.4,2.4-3.3c0-1.5-0.7-3.3-2.3-3.3
		C53,90.8,52.3,92.5,52.3,94.1"/>
	<path clip-path="url(#SVGID_2_)" d="M61.6,92.1c0-1.1,0-2-0.1-2.9h2.1l0.1,1.4h0.1c0.5-0.8,1.3-1.7,3-1.7c1.3,0,2.3,0.7,2.7,1.8h0
		c0.3-0.5,0.7-0.9,1.2-1.2c0.6-0.4,1.2-0.6,2-0.6c1.6,0,3.2,1.1,3.2,4.2v5.7h-2.4v-5.3c0-1.6-0.6-2.6-1.7-2.6
		c-0.8,0-1.5,0.6-1.7,1.3C70,92.5,70,92.9,70,93.1v5.8h-2.4v-5.6c0-1.4-0.5-2.3-1.7-2.3c-0.9,0-1.5,0.7-1.8,1.4
		c-0.1,0.3-0.1,0.5-0.1,0.8v5.7h-2.4V92.1z"/>
	<path clip-path="url(#SVGID_2_)" d="M78.5,92.5c0-1.3,0-2.3-0.1-3.2h2.1l0.1,1.5h0c0.7-1.1,1.8-1.7,3.3-1.7c2.2,0,4.1,1.9,4.1,4.9
		c0,3.5-2.2,5.2-4.4,5.2c-1.2,0-2.2-0.5-2.7-1.3h0v5h-2.4V92.5z M81,94.9c0,0.2,0,0.5,0.1,0.7c0.3,1,1.1,1.7,2.2,1.7
		c1.5,0,2.5-1.3,2.5-3.2c0-1.7-0.8-3.1-2.4-3.1c-1,0-1.9,0.7-2.2,1.8c0,0.2-0.1,0.4-0.1,0.6V94.9z"/>
	<rect x="90.1" y="84.8" clip-path="url(#SVGID_2_)" width="2.4" height="14.1"/>
	<path clip-path="url(#SVGID_2_)" d="M97,94.8c0.1,1.8,1.4,2.5,3,2.5c1.1,0,1.9-0.2,2.7-0.4l0.4,1.7c-0.8,0.4-2,0.6-3.4,0.6
		c-3.1,0-5-1.9-5-4.9c0-2.7,1.6-5.2,4.7-5.2c3.1,0,4.2,2.6,4.2,4.7c0,0.5,0,0.8-0.1,1H97z M101.2,93.1c0-0.9-0.4-2.4-2-2.4
		c-1.5,0-2.1,1.4-2.2,2.4H101.2z"/>
	<path clip-path="url(#SVGID_2_)" d="M108.3,86.8v2.5h2.3v1.8h-2.3v4.3c0,1.2,0.3,1.8,1.3,1.8c0.4,0,0.7,0,1-0.1l0,1.8
		c-0.4,0.1-1,0.3-1.8,0.3c-0.9,0-1.7-0.3-2.1-0.8c-0.5-0.6-0.8-1.5-0.8-2.7v-4.6h-1.4v-1.8h1.4v-1.8L108.3,86.8z"/>
	<path clip-path="url(#SVGID_2_)" d="M114.1,94.8c0.1,1.8,1.4,2.5,3,2.5c1.1,0,1.9-0.2,2.7-0.4l0.4,1.7c-0.8,0.4-2,0.6-3.4,0.6
		c-3.1,0-5-1.9-5-4.9c0-2.7,1.6-5.2,4.7-5.2c3.1,0,4.2,2.6,4.2,4.7c0,0.5,0,0.8-0.1,1H114.1z M118.4,93.1c0-0.9-0.4-2.4-2-2.4
		c-1.5,0-2.1,1.4-2.2,2.4H118.4z"/>
	<path clip-path="url(#SVGID_2_)" d="M126.7,92.5c0-1.3,0-2.3-0.1-3.2h2.1l0.1,1.5h0c0.7-1.1,1.8-1.7,3.3-1.7c2.2,0,4.1,1.9,4.1,4.9
		c0,3.5-2.2,5.2-4.4,5.2c-1.2,0-2.2-0.5-2.7-1.3h0v5h-2.4V92.5z M129.2,94.9c0,0.2,0,0.5,0.1,0.7c0.3,1,1.1,1.7,2.2,1.7
		c1.6,0,2.5-1.3,2.5-3.2c0-1.7-0.8-3.1-2.4-3.1c-1,0-1.9,0.7-2.2,1.8c0,0.2-0.1,0.4-0.1,0.6V94.9z"/>
	<path clip-path="url(#SVGID_2_)" d="M145.9,96.6c0,0.9,0,1.7,0.2,2.3h-2.2l-0.2-1.1h-0.1c-0.6,0.8-1.6,1.3-2.9,1.3
		c-1.9,0-3-1.4-3-2.9c0-2.4,2.2-3.7,5.7-3.7v-0.2c0-0.6-0.3-1.7-2-1.7c-1,0-1.9,0.3-2.6,0.7l-0.5-1.6c0.7-0.4,2-0.9,3.5-0.9
		c3.1,0,4,2,4,4.1V96.6z M143.5,94.2c-1.7,0-3.4,0.3-3.4,1.8c0,1,0.6,1.4,1.4,1.4c1,0,1.7-0.6,1.9-1.3c0.1-0.2,0.1-0.4,0.1-0.5V94.2
		z"/>
	<path clip-path="url(#SVGID_2_)" d="M149.8,89.3l1.7,5.2c0.2,0.6,0.4,1.3,0.6,1.9h0.1c0.1-0.5,0.3-1.3,0.5-1.9l1.5-5.2h2.6
		l-2.4,6.6c-1.3,3.6-2.2,5.2-3.4,6.2c-1,0.8-2,1.2-2.6,1.2l-0.6-2c0.4-0.1,0.9-0.3,1.4-0.7c0.5-0.3,1-0.9,1.4-1.5
		c0.1-0.2,0.1-0.3,0.1-0.4c0-0.1,0-0.2-0.1-0.5l-3.6-8.9H149.8z"/>
	<path clip-path="url(#SVGID_2_)" d="M158.2,92.1c0-1.1,0-2-0.1-2.9h2.1l0.1,1.4h0.1c0.5-0.8,1.3-1.7,3-1.7c1.3,0,2.3,0.7,2.7,1.8h0
		c0.3-0.5,0.7-0.9,1.2-1.2c0.6-0.4,1.2-0.6,2-0.6c1.6,0,3.2,1.1,3.2,4.2v5.7h-2.4v-5.3c0-1.6-0.6-2.6-1.7-2.6
		c-0.8,0-1.5,0.6-1.7,1.3c-0.1,0.2-0.1,0.5-0.1,0.8v5.8h-2.4v-5.6c0-1.4-0.5-2.3-1.7-2.3c-0.9,0-1.5,0.7-1.8,1.4
		c-0.1,0.3-0.1,0.5-0.1,0.8v5.7h-2.4V92.1z"/>
	<path clip-path="url(#SVGID_2_)" d="M176.8,94.8c0.1,1.8,1.4,2.5,3,2.5c1.1,0,1.9-0.2,2.7-0.4l0.4,1.7c-0.8,0.4-2,0.6-3.4,0.6
		c-3.1,0-5-1.9-5-4.9c0-2.7,1.6-5.2,4.7-5.2c3.1,0,4.2,2.6,4.2,4.7c0,0.5,0,0.8-0.1,1H176.8z M181.1,93.1c0-0.9-0.4-2.4-2-2.4
		c-1.5,0-2.1,1.4-2.2,2.4H181.1z"/>
	<path clip-path="url(#SVGID_2_)" d="M185.3,92.1c0-1.1,0-2-0.1-2.9h2.1l0.1,1.5h0.1c0.4-0.8,1.5-1.7,3.1-1.7c1.7,0,3.4,1.1,3.4,4.2
		v5.7h-2.4v-5.5c0-1.4-0.5-2.4-1.8-2.4c-1,0-1.7,0.7-1.9,1.4c-0.1,0.2-0.1,0.5-0.1,0.8v5.7h-2.4V92.1z"/>
	<path clip-path="url(#SVGID_2_)" d="M199.4,86.8v2.5h2.3v1.8h-2.3v4.3c0,1.2,0.3,1.8,1.3,1.8c0.4,0,0.7,0,1-0.1l0,1.8
		c-0.4,0.1-1,0.3-1.8,0.3c-0.9,0-1.7-0.3-2.1-0.8c-0.5-0.6-0.8-1.5-0.8-2.7v-4.6h-1.4v-1.8h1.4v-1.8L199.4,86.8z"/>
	<path clip-path="url(#SVGID_2_)" d="M203.5,96.7c0.5,0.3,1.6,0.7,2.5,0.7c1.1,0,1.6-0.5,1.6-1.1c0-0.7-0.4-1-1.6-1.4
		c-1.9-0.6-2.7-1.7-2.7-2.8c0-1.7,1.4-3,3.7-3c1.1,0,2,0.3,2.6,0.6l-0.5,1.7c-0.4-0.2-1.2-0.6-2-0.6c-0.9,0-1.4,0.4-1.4,1
		c0,0.6,0.5,0.9,1.7,1.4c1.8,0.6,2.6,1.5,2.6,2.9c0,1.8-1.4,3-3.9,3c-1.2,0-2.2-0.3-2.9-0.7L203.5,96.7z"/>
	<path clip-path="url(#SVGID_2_)" d="M216,92.5c0-1.3,0-2.3-0.1-3.2h2.1l0.1,1.5h0c0.7-1.1,1.8-1.7,3.3-1.7c2.2,0,4.1,1.9,4.1,4.9
		c0,3.5-2.2,5.2-4.4,5.2c-1.2,0-2.2-0.5-2.7-1.3h0v5H216V92.5z M218.5,94.9c0,0.2,0,0.5,0.1,0.7c0.3,1,1.1,1.7,2.2,1.7
		c1.6,0,2.5-1.3,2.5-3.2c0-1.7-0.8-3.1-2.4-3.1c-1,0-1.9,0.7-2.2,1.8c0,0.2-0.1,0.4-0.1,0.6V94.9z"/>
	<path clip-path="url(#SVGID_2_)" d="M235.2,96.6c0,0.9,0,1.7,0.2,2.3h-2.2l-0.2-1.1h-0.1c-0.6,0.8-1.6,1.3-2.9,1.3
		c-1.9,0-3-1.4-3-2.9c0-2.4,2.2-3.7,5.7-3.7v-0.2c0-0.6-0.3-1.7-2-1.7c-1,0-1.9,0.3-2.6,0.7l-0.5-1.6c0.7-0.4,2-0.9,3.5-0.9
		c3.1,0,4,2,4,4.1V96.6z M232.8,94.2c-1.7,0-3.4,0.3-3.4,1.8c0,1,0.6,1.4,1.4,1.4c1,0,1.7-0.6,1.9-1.3c0.1-0.2,0.1-0.4,0.1-0.5V94.2
		z"/>
	<path clip-path="url(#SVGID_2_)" d="M237.7,92.4c0-1.3,0-2.3-0.1-3.1h2.1l0.1,1.8h0.1c0.5-1.4,1.6-2,2.7-2c0.2,0,0.4,0,0.6,0.1v2.3
		c-0.2,0-0.4-0.1-0.7-0.1c-1.2,0-2,0.7-2.2,1.8c0,0.2-0.1,0.5-0.1,0.7v5h-2.4V92.4z"/>
	<path clip-path="url(#SVGID_2_)" d="M248.1,86.8v2.5h2.3v1.8h-2.3v4.3c0,1.2,0.3,1.8,1.3,1.8c0.4,0,0.7,0,1-0.1l0,1.8
		c-0.4,0.1-1,0.3-1.8,0.3c-0.9,0-1.7-0.3-2.1-0.8c-0.5-0.6-0.8-1.5-0.8-2.7v-4.6h-1.4v-1.8h1.4v-1.8L248.1,86.8z"/>
	<path clip-path="url(#SVGID_2_)" d="M252.3,92.1c0-1.1,0-2-0.1-2.9h2.1l0.1,1.5h0.1c0.4-0.8,1.5-1.7,3.1-1.7c1.7,0,3.4,1.1,3.4,4.2
		v5.7h-2.4v-5.5c0-1.4-0.5-2.4-1.8-2.4c-1,0-1.7,0.7-1.9,1.4c-0.1,0.2-0.1,0.5-0.1,0.8v5.7h-2.4V92.1z"/>
	<path clip-path="url(#SVGID_2_)" d="M265.4,94.8c0.1,1.8,1.4,2.5,3,2.5c1.1,0,1.9-0.2,2.7-0.4l0.4,1.7c-0.8,0.4-2,0.6-3.4,0.6
		c-3.1,0-5-1.9-5-4.9c0-2.7,1.6-5.2,4.7-5.2c3.1,0,4.2,2.6,4.2,4.7c0,0.5,0,0.8-0.1,1H265.4z M269.6,93.1c0-0.9-0.4-2.4-2-2.4
		c-1.5,0-2.1,1.4-2.2,2.4H269.6z"/>
	<path clip-path="url(#SVGID_2_)" d="M273.9,92.4c0-1.3,0-2.3-0.1-3.1h2.1l0.1,1.8h0.1c0.5-1.4,1.6-2,2.7-2c0.2,0,0.4,0,0.6,0.1v2.3
		c-0.2,0-0.4-0.1-0.7-0.1c-1.2,0-2,0.7-2.2,1.8c0,0.2-0.1,0.5-0.1,0.7v5h-2.4V92.4z"/>
</g>
</svg>
